<?xml version="1.0" encoding="UTF-8" standalone="no"?>
<!-- Created with Inkscape (http://www.inkscape.org/) -->

<svg
   xmlns:dc="http://purl.org/dc/elements/1.1/"
   xmlns:cc="http://creativecommons.org/ns#"
   xmlns:rdf="http://www.w3.org/1999/02/22-rdf-syntax-ns#"
   xmlns:svg="http://www.w3.org/2000/svg"
   xmlns="http://www.w3.org/2000/svg"
   version="1.1"
   width="64"
   height="64"
   id="svg2">
  <defs
     id="defs4" />
  <metadata
     id="metadata7">
    <rdf:RDF>
      <cc:Work
         rdf:about="">
        <dc:format>image/svg+xml</dc:format>
        <dc:type
           rdf:resource="http://purl.org/dc/dcmitype/StillImage" />
        <dc:title></dc:title>
      </cc:Work>
    </rdf:RDF>
  </metadata>
  <g
     transform="translate(0,-988.36218)"
     id="layer1">
    <rect
       width="7"
       height="26"
       rx="1"
       ry="1"
       x="28.5"
       y="33.5"
       transform="translate(0,988.36218)"
       id="rect3784"
       style="fill:#b7a259;fill-opacity:1;stroke:#383118;stroke-opacity:1" />
    <rect
       width="49"
       height="33"
       rx="1"
       ry="1"
       x="7.5"
       y="7.5"
       transform="translate(0,988.36218)"
       id="rect2987"
       style="fill:#b7a259;fill-opacity:1;stroke:#383118;stroke-opacity:1" />
    <g
       transform="matrix(0.25,0,0,0.25,16.657342,996.71513)"
       id="g3847">
      <g
         id="layer1-5"
         style="display:inline" />
      <g
         id="layer2"
         style="display:inline">
        <path
           d="m 106.70867,28.013754 c -4.8905,0 -8.791046,3.967652 -8.791046,8.85815 l 0,10.401617 c 2.067726,1.021595 4.411246,1.610573 6.844936,1.610573 8.86678,0 16.03862,-7.572598 16.03862,-16.911015 0,-1.361854 -0.1808,-2.690359 -0.46975,-3.959325 l -13.62276,0 z"
           id="path3297"
           style="fill:#ff0000;fill-opacity:1;stroke:#000000;stroke-width:4;stroke-linejoin:round;stroke-miterlimit:4;stroke-opacity:1;stroke-dasharray:none;display:inline" />
        <path
           d="m 80,11.236952 c -13.042717,0 -23.621733,10.887716 -23.621735,24.292808 0,7.73156 3.509266,14.609999 8.992365,19.058446 -3.24364,-0.337827 -6.562148,-0.536858 -9.931866,-0.536858 -4.862908,0 -9.60524,0.451124 -14.226727,1.140823 C 37.327325,47.06534 28.27819,40.085839 20.802369,37.951849 10.683477,49.113141 8.7044183,60.809057 8.8001729,71.235368 8.9115047,83.35781 12.418716,92.795762 17.38898,100.08689 c 11.51583,6.47355 25.352356,10.2674 40.197215,10.2674 12.480576,0 24.223462,-2.68562 34.493102,-7.38179 6.567004,-7.888833 10.535833,-17.98219 10.535833,-28.990312 0,-7.85774 -2.0187,-15.230133 -5.5699,-21.675627 4.06659,-4.362705 6.57651,-10.262675 6.57651,-16.776801 C 103.62174,22.124668 93.042714,11.236953 80,11.236952 z"
           id="path2278"
           style="fill:#ffff0e;fill-opacity:1;stroke:#000000;stroke-width:6;stroke-linejoin:round;stroke-miterlimit:4;stroke-opacity:1;stroke-dasharray:none" />
        <path
           d="m 43.129975,14.64191 a 2.4668436,2.5464191 0 1 1 -4.933687,0 2.4668436,2.5464191 0 1 1 4.933687,0 z"
           transform="matrix(1.6225444,0,0,1.5047329,19.960452,6.8349399)"
           id="path3307"
           style="fill:#050505;fill-opacity:1;stroke:#000000;stroke-width:2;stroke-linejoin:round;stroke-miterlimit:4;stroke-opacity:1;stroke-dasharray:none" />
      </g>
    </g>
  </g>
</svg>
